<svg xmlns="http://www.w3.org/2000/svg" width="14" height="16" viewBox="0 0 14 16">
    <g fill="none" fill-rule="evenodd">
        <g fill="#8892A3" fill-rule="nonzero">
            <g>
                <g>
                    <path d="M7 16c1.104 0 2-.895 2-2H5c0 1.105.896 2 2 2zm6.73-4.678c-.603-.65-1.733-1.625-1.733-4.822 0-2.428-1.702-4.372-3.998-4.849V1C8 .448 7.552 0 7 0S6 .448 6 1v.651c-2.295.477-3.997 2.42-3.997 4.849 0 3.197-1.13 4.173-1.734 4.822-.187.201-.27.442-.269.678.003.512.406 1 1.003 1h11.994c.597 0 1-.488 1.003-1 .002-.236-.082-.477-.27-.678z" transform="translate(-1354 -20) translate(270) translate(1084 20)"/>
                </g>
            </g>
        </g>
    </g>
</svg>
