<svg xmlns="http://www.w3.org/2000/svg" width="9" height="12" viewBox="0 0 9 12">
    <g fill="none" fill-rule="evenodd">
        <g fill="#50576B" fill-rule="nonzero">
            <g>
                <g>
                    <g>
                        <path d="M5.25 3.188V0H.562C.252 0 0 .25 0 .563v10.874c0 .312.25.563.563.563h7.875c.311 0 .562-.25.562-.563V3.75H5.812c-.309 0-.562-.253-.562-.563zM7.042 8.14l-2.26 2.243c-.156.155-.408.155-.563 0l-2.26-2.243c-.238-.236-.071-.641.263-.641H3.75V5.625c0-.207.168-.375.375-.375h.75c.207 0 .375.168.375.375V7.5h1.528c.334 0 .501.405.264.641zm1.794-5.68L6.54.164C6.436.06 6.293 0 6.143 0H6v3h3v-.143c0-.148-.059-.29-.164-.396z" transform="translate(-1166 -93) translate(1056 84) translate(92) translate(18 9)"/>
                    </g>
                </g>
            </g>
        </g>
    </g>
</svg>
