<svg xmlns="http://www.w3.org/2000/svg" width="14" height="14" viewBox="0 0 14 14">
    <g fill="none" fill-rule="evenodd">
        <g>
            <g>
                <path fill="#ADAAFD" d="M13 0c.552 0 1 .448 1 1v12c0 .552-.448 1-1 1H1c-.552 0-1-.448-1-1V1c0-.552.448-1 1-1h12zM6 8H2c-.552 0-1 .448-1 1s.448 1 1 1h4c.552 0 1-.448 1-1s-.448-1-1-1zm6-4H8c-.552 0-1 .448-1 1s.448 1 1 1h4c.552 0 1-.448 1-1s-.448-1-1-1z" transform="translate(-28 -335) translate(28 335)"/>
                <path fill="#635CFF" d="M5 10v1.5c0 .276-.224.5-.5.5h-1c-.276 0-.5-.224-.5-.5V10h2zm6-4v5.5c0 .276-.224.5-.5.5h-1c-.276 0-.5-.224-.5-.5V6h2zM4.5 2c.276 0 .5.224.5.5V8H3V2.5c0-.276.224-.5.5-.5h1zm6 0c.276 0 .5.224.5.5V4H9V2.5c0-.276.224-.5.5-.5h1z" transform="translate(-28 -335) translate(28 335)"/>
            </g>
        </g>
    </g>
</svg>
