<svg xmlns="http://www.w3.org/2000/svg" width="16" height="12" viewBox="0 0 16 12">
    <g fill="none" fill-rule="evenodd">
        <g>
            <g>
                <path fill="#A4ACBA" d="M13.5 0c.276 0 .5.224.5.5v7c0 .276-.224.5-.5.5H11c0-1.105-.895-2-2-2s-2 .895-2 2H.5C.224 8 0 7.776 0 7.5v-7C0 .224.224 0 .5 0h13zM7 2c-1.105 0-2 .895-2 2s.895 2 2 2 2-.895 2-2-.895-2-2-2z" transform="translate(-26 -160) translate(26 160)"/>
                <path fill="#50576B" d="M15.5 4c.276 0 .5.224.5.5v7c0 .276-.224.5-.5.5h-13c-.276 0-.5-.224-.5-.5v-7c0-.276.224-.5.5-.5h13zM9 6c-1.105 0-2 .895-2 2s.895 2 2 2 2-.895 2-2-.895-2-2-2z" transform="translate(-26 -160) translate(26 160)"/>
            </g>
        </g>
    </g>
</svg>
