<svg xmlns="http://www.w3.org/2000/svg" width="10" height="11" viewBox="0 0 10 11">
    <g fill="none" fill-rule="evenodd">
        <g fill="#3C4357">
            <g>
                <g>
                    <g>
                        <path d="M20 8c1.105 0 2 .895 2 2v6c0 1.105-.895 2-2 2h-6c-1.105 0-2-.895-2-2v-6c0-1.105.895-2 2-2v1c0 .513.386.936.883.993L15 10h4c.513 0 .936-.386.993-.883L20 9V8zm-2-1c.552 0 1 .448 1 1v1h-4V8c0-.552.448-1 1-1h2z" transform="translate(-553 -184) translate(310 88) translate(0 81) translate(231 8)"/>
                    </g>
                </g>
            </g>
        </g>
    </g>
</svg>
