<svg xmlns="http://www.w3.org/2000/svg" width="14" height="12" viewBox="0 0 14 12">
    <g fill="none" fill-rule="evenodd">
        <g fill="#635CFF" fill-rule="nonzero">
            <g>
                <path d="M28.352 146.349c.218 0 .437-.09.628-.287l4.471-4.464c.178-.171.28-.41.28-.65 0-.239-.102-.485-.28-.656l-4.477-4.47c-.192-.178-.404-.274-.622-.274-.506 0-.862.362-.862.834 0 .26.11.472.267.629l1.538 1.552 1.777 1.606-1.593-.096h-4.176c-2.051 0-2.79-.84-2.79-2.905 0-.424.028-.738.028-1.012 0-.52-.342-.868-.848-.868-.567 0-.806.438-.875.82-.061.329-.075.698-.075 1.094 0 3.131 1.34 4.621 4.43 4.621h4.306l1.586-.089-1.77 1.6-1.538 1.552c-.157.164-.267.369-.267.629 0 .478.356.834.862.834z" transform="translate(-907 -257) translate(887 122)"/>
            </g>
        </g>
    </g>
</svg>
