<svg xmlns="http://www.w3.org/2000/svg" width="16" height="16" viewBox="0 0 16 16">
    <g fill="none" fill-rule="evenodd">
        <g fill="#8892A3">
            <g>
                <g>
                    <path d="M139 23c2.21 0 4 1.79 4 4v8c0 2.21-1.79 4-4 4h-8c-2.21 0-4-1.79-4-4v-8c0-2.21 1.79-4 4-4h8zm-3.355 6.968h-2.064c-.214 0-.387.173-.387.387v.774c0 .214.173.387.387.387h.387v2.065h-.387c-.214 0-.387.173-.387.387v.774c0 .214.173.387.387.387h2.838c.214 0 .387-.173.387-.387v-.774c0-.214-.173-.387-.387-.387h-.387v-3.226c0-.214-.173-.387-.387-.387zm-.645-3.42c-.748 0-1.355.607-1.355 1.355s.607 1.355 1.355 1.355 1.355-.607 1.355-1.355-.607-1.355-1.355-1.355z" transform="translate(-800 -552) translate(310 326) translate(363 203)"/>
                </g>
            </g>
        </g>
    </g>
</svg>
