<svg xmlns="http://www.w3.org/2000/svg" width="16" height="16" viewBox="0 0 16 16">
    <g fill="none" fill-rule="evenodd">
        <g>
            <g>
                <path fill="#A4ACBA" d="M2 2c0-1.105.895-2 2-2h10c1.105 0 2 .895 2 2v12c0 1.105-.895 2-2 2H4c-1.105 0-2-.895-2-2v-1h1c.552 0 1-.448 1-1s-.448-1-1-1H2V9h1c.552 0 1-.448 1-1s-.448-1-1-1H2V5h1c.552 0 1-.448 1-1s-.448-1-1-1H2V2z" transform="translate(-26 -260) translate(26 260)"/>
                <path fill="#50576B" d="M2 11v2H1c-.552 0-1-.448-1-1s.448-1 1-1h1zm0-4v2H1c-.552 0-1-.448-1-1s.448-1 1-1h1zm0-4v2H1c-.552 0-1-.448-1-1s.448-1 1-1h1zM14 3v10h-2V3h2zm-3 4v6H9V7h2zm-3 3v3H6v-3h2z" transform="translate(-26 -260) translate(26 260)"/>
            </g>
        </g>
    </g>
</svg>
