<svg xmlns="http://www.w3.org/2000/svg" width="12" height="12" viewBox="0 0 12 12">
    <g fill="none" fill-rule="evenodd">
        <g fill="#8892A3">
            <g>
                <g>
                    <path d="M89 9.059h-1.539c-.12.494-.31.953-.572 1.362l1.087 1.087-1.482 1.483-1.087-1.087c-.41.254-.868.444-1.348.557V14H81.94v-1.539c-.48-.113-.939-.303-1.348-.557l-1.087 1.087-1.497-1.497 1.087-1.087c-.254-.41-.444-.868-.557-1.348H77V6.962h1.532c.113-.494.31-.953.564-1.37L78.01 4.507l1.483-1.482 1.087 1.087c.41-.262.875-.452 1.362-.572V2h2.118v1.539c.48.113.939.303 1.348.557l1.087-1.087 1.497 1.497-1.087 1.087c.254.416.451.875.564 1.37H89v2.096zm-6 1.059c1.172 0 2.118-.946 2.118-2.118S84.172 5.882 83 5.882 80.882 6.828 80.882 8s.946 2.118 2.118 2.118z" transform="translate(-387 -180) translate(310 76) translate(0 102)"/>
                </g>
            </g>
        </g>
    </g>
</svg>
