<svg xmlns="http://www.w3.org/2000/svg" width="14" height="14" viewBox="0 0 14 14">
    <g fill="none" fill-rule="evenodd">
        <g fill="#635CFF">
            <path d="M42 315.235h-1.795c-.14.577-.363 1.112-.667 1.59l1.268 1.268-1.73 1.73-1.268-1.269c-.477.297-1.013.519-1.573.65V321h-2.47v-1.795c-.56-.132-1.096-.354-1.573-.65l-1.268 1.267-1.746-1.746 1.268-1.268c-.297-.477-.519-1.013-.65-1.573H28v-2.446h1.787c.132-.576.362-1.111.659-1.597l-1.268-1.268 1.73-1.73 1.267 1.268c.478-.304 1.021-.527 1.59-.667V307h2.47v1.795c.56.132 1.096.354 1.573.65l1.268-1.267 1.746 1.746-1.268 1.268c.297.486.527 1.02.659 1.597H42v2.446zm-7 1.236c1.367 0 2.47-1.104 2.47-2.471s-1.103-2.47-2.47-2.47c-1.367 0-2.47 1.103-2.47 2.47 0 1.367 1.103 2.47 2.47 2.47z" transform="translate(-28 -307)"/>
        </g>
    </g>
</svg>
