<svg xmlns="http://www.w3.org/2000/svg" width="127" height="46" viewBox="0 0 127 46">
    <defs>
        <linearGradient id="4e3bcag29a" x1="50%" x2="50%" y1="100%" y2="0%">
            <stop offset="0%" stop-color="#635CFF"/>
            <stop offset="100%" stop-color="#B48AE7"/>
        </linearGradient>
        <linearGradient id="ag76icq01b" x1="50%" x2="27.246%" y1="0%" y2="81.811%">
            <stop offset="0%" stop-color="#DE8CE1"/>
            <stop offset="100%" stop-color="#F68284"/>
        </linearGradient>
        <linearGradient id="1iyxtrh7zc" x1="50%" x2="50%" y1="100%" y2="-56.162%">
            <stop offset="0%" stop-color="#B48AE7"/>
            <stop offset="100%" stop-color="#2700D9"/>
        </linearGradient>
    </defs>
    <g fill="none" fill-rule="evenodd">
        <g>
            <g>
                <g>
                    <g>
                        <path fill="url(#4e3bcag29a)" d="M6.251 16.66h24.053c1.103 0 1.998.893 2 1.996l.035 21.188L6.26 33.679c-1.38-.327-2.344-1.576-2.309-2.995l.301-12.075c.027-1.085.914-1.95 2-1.95z" transform="translate(-179.000000, -21.000000) translate(179.770354, 21.000000) translate(0.000000, 0.000000) translate(18.114823, 28.251438) rotate(-30.000000) translate(-18.114823, -28.251438)"/>
                        <path fill="url(#ag76icq01b)" d="M15.23 0h22c1.657 0 3 1.343 3 3v25.512c0 .883-.58 1.662-1.426 1.916L10.23 39c1.333-.667 2-2 2-4V3c0-1.657 1.343-3 3-3z" transform="translate(-179.000000, -21.000000) translate(179.770354, 21.000000) translate(0.000000, 0.000000)"/>
                        <path fill="url(#1iyxtrh7zc)" d="M25.605 12.847L36.23 31.179l-25.668 7.7c-.069.02-.138.039-.207.054L10.23 39c1.333-.667 2-2 2-4V18.263l10.645-6.145c.955-.552 2.177-.226 2.73.729z" transform="translate(-179.000000, -21.000000) translate(179.770354, 21.000000) translate(0.000000, 0.000000)"/>
                    </g>
                    <path fill="#0A2540" fill-rule="nonzero" d="M62.89 26v-1.908h-1.674v-8.748h1.674v-1.908h-5.706v1.908h1.656v8.748h-1.656V26h5.706zm4.34 0v-6.21c0-.252.054-.471.162-.657.108-.186.249-.342.423-.468s.372-.222.594-.288c.222-.066.453-.099.693-.099.552 0 .948.168 1.188.504.24.336.36.84.36 1.512V26h2.304v-5.94c0-1.176-.258-2.082-.774-2.718-.516-.636-1.26-.954-2.232-.954-.732 0-1.305.171-1.72.513-.413.342-.716.765-.908 1.269h-.09v-1.566h-2.304V26h2.304zm12.638 0l3.15-9.396h-2.196l-1.278 4.05-.918 3.348H78.5l-.918-3.348-1.314-4.05H74L77.132 26h2.736zm8.012.216c.672 0 1.278-.114 1.818-.342.54-.228.999-.558 1.377-.99.378-.432.669-.951.873-1.557.204-.606.306-1.287.306-2.043 0-.756-.102-1.434-.306-2.034-.204-.6-.495-1.113-.873-1.539-.378-.426-.837-.753-1.377-.981-.54-.228-1.146-.342-1.818-.342-.672 0-1.275.114-1.81.342-.533.228-.99.555-1.367.981-.378.426-.67.939-.873 1.539-.204.6-.306 1.278-.306 2.034 0 .756.102 1.437.306 2.043.204.606.495 1.125.873 1.557.378.432.834.762 1.368.99.534.228 1.137.342 1.809.342zm0-1.854c-.6 0-1.074-.186-1.422-.558-.348-.372-.522-.918-.522-1.638V20.42c0-.708.174-1.248.522-1.62.348-.372.822-.558 1.422-.558.612 0 1.092.186 1.44.558.348.372.522.912.522 1.62v1.746c0 .72-.174 1.266-.522 1.638-.348.372-.828.558-1.44.558zm7.31-9.126c.468 0 .81-.108 1.026-.324.216-.216.324-.492.324-.828v-.36c0-.336-.108-.612-.324-.828-.216-.216-.558-.324-1.026-.324-.48 0-.825.108-1.035.324-.21.216-.315.492-.315.828v.36c0 .336.105.612.315.828.21.216.555.324 1.035.324zM96.342 26v-9.396h-2.304V26h2.304zm6.122.216c.912 0 1.686-.207 2.322-.621.636-.414 1.11-1.035 1.422-1.863l-1.764-.846c-.168.42-.402.771-.702 1.053-.3.282-.726.423-1.278.423-.648 0-1.131-.201-1.45-.603-.317-.402-.476-.933-.476-1.593v-1.71c0-.66.159-1.194.477-1.602.318-.408.8-.612 1.449-.612.504 0 .903.129 1.197.387.294.258.495.585.603.981l1.89-.846c-.276-.744-.723-1.326-1.341-1.746-.618-.42-1.401-.63-2.35-.63-.695 0-1.313.114-1.853.342-.54.228-.993.555-1.36.981-.365.426-.644.939-.836 1.539-.192.6-.288 1.278-.288 2.034 0 .756.096 1.437.288 2.043.192.606.47 1.125.837 1.557.366.432.819.762 1.359.99.54.228 1.158.342 1.854.342zm6.428-10.98c.468 0 .81-.108 1.026-.324.216-.216.324-.492.324-.828v-.36c0-.336-.108-.612-.324-.828-.216-.216-.558-.324-1.026-.324-.48 0-.825.108-1.035.324-.21.216-.315.492-.315.828v.36c0 .336.105.612.315.828.21.216.555.324 1.035.324zM110.044 26v-9.396h-2.304V26h2.304zm5.96 0v-1.836h-1.242V12.68h-2.304v11.052c0 .72.186 1.278.558 1.674.372.396.954.594 1.746.594h1.242zm2.828 3.6c.384 0 .72-.036 1.008-.108.288-.072.534-.186.738-.342.204-.156.38-.357.53-.603.15-.246.286-.537.406-.873l3.78-11.07h-2.16l-1.638 4.968-.648 2.376h-.108l-.612-2.376-1.638-4.968h-2.286l3.366 9.846-.432 1.314h-1.692V29.6h1.386z" transform="translate(-179.000000, -21.000000) translate(179.770354, 21.000000) translate(0.000000, 0.000000)"/>
                </g>
            </g>
        </g>
    </g>
</svg>
