<svg xmlns="http://www.w3.org/2000/svg" width="33" height="23" viewBox="0 0 33 23">
    <g fill="none" fill-rule="evenodd">
        <g>
            <g>
                <g>
                    <g>
                        <path fill="#262626" d="M0 1.51C0 .675.674 0 1.504 0h29.992C32.326 0 33 .664 33 1.51v19.98c0 .834-.674 1.51-1.504 1.51H1.504C.674 23 0 22.336 0 21.49V1.51z" transform="translate(-1078 -246) translate(310 76) translate(0 163) translate(768 7)"/>
                        <g>
                            <path fill="#FF5F00" d="M7.329 2.262H12.581V10.721H7.329z" transform="translate(-1078 -246) translate(310 76) translate(0 163) translate(768 7) translate(6.5 5)"/>
                            <path fill="#EB001B" d="M7.87 6.493c-.002-1.65.767-3.21 2.083-4.23C7.717.53 4.505.784 2.575 2.844c-1.93 2.062-1.93 5.239 0 7.3 1.93 2.06 5.142 2.313 7.378.58-1.317-1.02-2.085-2.58-2.083-4.23z" transform="translate(-1078 -246) translate(310 76) translate(0 163) translate(768 7) translate(6.5 5)"/>
                            <path fill="#F79E1B" fill-rule="nonzero" d="M18.268 10.041V9.69h.083v-.073h-.198v.073h.078v.351h.037zm.385 0v-.424h-.06l-.07.303-.07-.303h-.06v.424h.043V9.72l.065.276h.045l.065-.276v.321h.042z" transform="translate(-1078 -246) translate(310 76) translate(0 163) translate(768 7) translate(6.5 5)"/>
                            <path fill="#F79E1B" d="M18.779 6.493c0 2.06-1.193 3.938-3.071 4.838-1.879.9-4.113.663-5.755-.61 1.316-1.02 2.084-2.579 2.084-4.23 0-1.65-.768-3.209-2.084-4.229 1.642-1.273 3.876-1.51 5.755-.61 1.878.9 3.07 2.78 3.07 4.839v.002z" transform="translate(-1078 -246) translate(310 76) translate(0 163) translate(768 7) translate(6.5 5)"/>
                        </g>
                    </g>
                </g>
            </g>
        </g>
    </g>
</svg>
