<svg xmlns="http://www.w3.org/2000/svg" width="12" height="12" viewBox="0 0 12 12">
    <g fill="none" fill-rule="evenodd">
        <g fill="#8892A3" fill-rule="nonzero">
            <g>
                <g>
                    <g>
                        <path d="M10.328.295l.093 1.94C9.32.935 7.701.185 5.996.187 3.158.187.795 2.225.288 4.917c-.015.083.007.167.06.232.054.064.133.101.217.101h1.15c.13 0 .243-.09.273-.217.383-1.59 1.67-2.803 3.279-3.092 1.61-.29 3.238.4 4.15 1.757L7.04 3.585c-.076-.004-.151.024-.207.077-.056.053-.087.127-.087.204v1.111c0 .155.126.281.281.281h4.693c.155 0 .281-.126.281-.281V.281C12 .126 11.874 0 11.719 0h-1.11c-.077 0-.15.032-.204.087-.053.056-.08.13-.077.208zm-4.332 9.83c-1.373.001-2.657-.683-3.422-1.823l2.386.114c.077.003.152-.025.208-.078.055-.053.087-.127.087-.204v-1.11c0-.156-.126-.282-.282-.282H.281c-.155 0-.281.126-.281.282v4.695c0 .155.126.281.281.281h1.11c.077 0 .15-.031.204-.087.053-.056.081-.131.077-.208l-.097-1.936c1.102 1.298 2.719 2.045 4.421 2.043 2.839 0 5.201-2.037 5.708-4.73.015-.082-.007-.166-.06-.23-.054-.065-.133-.102-.216-.102h-1.15c-.13 0-.244.09-.273.217-.446 1.853-2.103 3.158-4.009 3.158z" transform="translate(-432.000000, -502.000000) translate(310.000000, 182.000000) translate(0.000000, 307.000000) translate(122.000000, 13.000000)"/>
                    </g>
                </g>
            </g>
        </g>
    </g>
</svg>
