<svg xmlns="http://www.w3.org/2000/svg" width="33" height="23" viewBox="0 0 33 23">
    <g fill="none" fill-rule="evenodd">
        <g>
            <g>
                <g>
                    <g>
                        <path fill="#0742A6" d="M0 1.51C0 .675.674 0 1.504 0h29.992C32.326 0 33 .664 33 1.51v19.98c0 .834-.674 1.51-1.504 1.51H1.504C.674 23 0 22.336 0 21.49V1.51z" transform="translate(-1078 -210) translate(310 76) translate(0 127) translate(768 7)"/>
                        <g fill="#FFF">
                            <path d="M9.467 6.787L7.698 6.787 8.805.121 10.574.121zM15.883.284C15.534.149 14.981 0 14.296 0c-1.748 0-2.979.908-2.986 2.205-.015.958.881 1.49 1.55 1.809.686.326.918.539.918.83-.007.446-.553.652-1.062.652-.707 0-1.086-.106-1.661-.354l-.233-.107-.248 1.496c.415.185 1.18.348 1.974.355 1.857 0 3.066-.893 3.08-2.276.008-.76-.465-1.34-1.485-1.816-.62-.305-.998-.51-.998-.822.007-.284.32-.575 1.02-.575.575-.014.997.12 1.318.255l.16.071.24-1.44z" transform="translate(-1078 -210) translate(310 76) translate(0 127) translate(768 7) translate(5.544 8.085)"/>
                            <path fill-rule="nonzero" d="M18.236 4.425l.706-1.865c-.007.014.146-.39.233-.638l.124.574s.335 1.596.408 1.93h-1.471zM20.42.121h-1.369c-.422 0-.743.12-.925.553l-2.629 6.113h1.857l.372-1h2.272c.051.234.211 1 .211 1h1.64L20.42.12z" transform="translate(-1078 -210) translate(310 76) translate(0 127) translate(768 7) translate(5.544 8.085)"/>
                            <path d="M6.22.12L4.485 4.667l-.19-.921C3.977 2.68 2.972 1.525 1.85.95l1.587 5.83H5.31L8.091.12H6.219z" transform="translate(-1078 -210) translate(310 76) translate(0 127) translate(768 7) translate(5.544 8.085)"/>
                            <path d="M2.877.12H.029L0 .257c2.221.553 3.692 1.886 4.297 3.489L3.677.68c-.101-.426-.414-.546-.8-.56z" transform="translate(-1078 -210) translate(310 76) translate(0 127) translate(768 7) translate(5.544 8.085)"/>
                        </g>
                    </g>
                </g>
            </g>
        </g>
    </g>
</svg>
