<svg xmlns="http://www.w3.org/2000/svg" width="18" height="18" viewBox="0 0 18 18">
    <g fill="none" fill-rule="evenodd">
        <g>
            <g>
                <g>
                    <g>
                        <g>
                            <path fill="#635CFF" d="M18 9c0 4.97-4.03 9-9 9s-9-4.03-9-9 4.03-9 9-9 9 4.03 9 9z" transform="translate(-1114 -5184) translate(180 4777) translate(540) translate(4 373) translate(390 34)"/>
                            <path fill="#FFF" d="M7.959 13.765l6.677-6.677c.227-.227.227-.594 0-.821l-.82-.821c-.227-.227-.595-.227-.822 0L7.548 10.89 5.006 8.35c-.227-.227-.594-.227-.821 0l-.821.821c-.227.227-.227.594 0 .821l3.774 3.774c.227.227.594.227.821 0z" transform="translate(-1114 -5184) translate(180 4777) translate(540) translate(4 373) translate(390 34)"/>
                        </g>
                    </g>
                </g>
            </g>
        </g>
    </g>
</svg>
