<svg xmlns="http://www.w3.org/2000/svg" xmlns:xlink="http://www.w3.org/1999/xlink" width="24" height="18" viewBox="0 0 24 18">
    <defs>
        <rect id="1pl0fagj8a" width="24" height="18" x="0" y="0" rx="2"/>
    </defs>
    <g fill="none" fill-rule="evenodd">
        <g>
            <g>
                <g>
                    <g transform="translate(-192 -2416) translate(0 2197) translate(180 169) translate(12 50)">
                        <mask id="f34ruhqutb" fill="#fff">
                            <use xlink:href="#1pl0fagj8a"/>
                        </mask>
                        <g mask="url(#f34ruhqutb)">
                            <path fill="#F7FCFF" d="M0 0L24 0 24 18 0 18z"/>
                            <path fill="#E31D1C" d="M0 11H24V12.5H0zM0 13.75H24V15.25H0zM0 5.5H24V7H0zM0 16.5H24V18H0zM0 8.25H24V9.75H0zM0 0H24V1.5H0zM0 2.75H24V4.25H0z"/>
                            <path fill="#2E42A5" d="M0 0H15V9.75H0z"/>
                            <path fill="#F7FCFF" d="M1.29 6.922l.25.554h.538l-.423.43.163.68-.526-.382-.545.382.184-.68-.484-.43h.632l.212-.554zm3 0l.25.554h.538l-.423.43.163.68-.526-.382-.545.382.184-.68-.484-.43h.632l.212-.554zm3 0l.25.554h.538l-.423.43.163.68-.526-.382-.545.382.184-.68-.484-.43h.632l.212-.554zm3 0l.25.554h.538l-.423.43.163.68-.526-.382-.545.382.184-.68-.484-.43h.632l.212-.554zm3 0l.25.554h.538l-.423.43.163.68-.526-.382-.545.382.184-.68-.484-.43h.632l.212-.554zm-10.5-1.5l.25.554h.538l-.423.43.163.68-.526-.382-.545.382.184-.68-.484-.43h.632l.212-.554zm3 0l.25.554h.538l-.423.43.163.68-.526-.382-.545.382.184-.68-.484-.43h.632l.212-.554zm3 0l.25.554h.538l-.423.43.163.68-.526-.382-.545.382.184-.68-.484-.43h.632l.212-.554zm3 0l.25.554h.538l-.423.43.163.68-.526-.382-.545.382.184-.68-.484-.43h.632l.212-.554zm-4.5-1.5l.25.554h.538l-.423.43.163.68-.526-.382-.545.382.184-.68-.484-.43h.632l.212-.554zm3 0l.25.554h.538l-.423.43.163.68-.526-.382-.545.382.184-.68-.484-.43h.632l.212-.554zm-9 0l.25.554h.538l-.423.43.163.68-.526-.382-.545.382.184-.68-.484-.43h.632l.212-.554zm3 0l.25.554h.538l-.423.43.163.68-.526-.382-.545.382.184-.68-.484-.43h.632l.212-.554zm9 0l.25.554h.538l-.423.43.163.68-.526-.382-.545.382.184-.68-.484-.43h.632l.212-.554zm-10.5-1.5l.25.554h.538l-.423.43.163.68-.526-.382-.545.382.184-.68-.484-.43h.632l.212-.554zm3 0l.25.554h.538l-.423.43.163.68-.526-.382-.545.382.184-.68-.484-.43h.632l.212-.554zm3 0l.25.554h.538l-.423.43.163.68-.526-.382-.545.382.184-.68-.484-.43h.632l.212-.554zm3 0l.25.554h.538l-.423.43.163.68-.526-.382-.545.382.184-.68-.484-.43h.632l.212-.554zM1.29.922l.25.554h.538l-.423.43.163.68-.526-.382-.545.382.184-.68-.484-.43h.632L1.29.922zm3 0l.25.554h.538l-.423.43.163.68-.526-.382-.545.382.184-.68-.484-.43h.632L4.29.922zm3 0l.25.554h.538l-.423.43.163.68-.526-.382-.545.382.184-.68-.484-.43h.632L7.29.922zm3 0l.25.554h.538l-.423.43.163.68-.526-.382-.545.382.184-.68-.484-.43h.632l.212-.554zm3 0l.25.554h.538l-.423.43.163.68-.526-.382-.545.382.184-.68-.484-.43h.632l.212-.554z"/>
                        </g>
                    </g>
                </g>
            </g>
        </g>
    </g>
</svg>
