<svg xmlns="http://www.w3.org/2000/svg" width="35" height="38" viewBox="0 0 35 38">
    <defs>
        <linearGradient id="5mf9fed2ga" x1="20.761%" x2="79.239%" y1="100%" y2="0%">
            <stop offset="0%" stop-color="#B48AE7"/>
            <stop offset="100%" stop-color="#F68284"/>
        </linearGradient>
        <linearGradient id="efe4latleb" x1="50%" x2="50%" y1="100%" y2="0%">
            <stop offset="0%" stop-color="#635CFF"/>
            <stop offset="100%" stop-color="#B48AE7"/>
        </linearGradient>
    </defs>
    <g fill="none" fill-rule="evenodd">
        <g>
            <g>
                <g>
                    <path fill="#FFF" d="M35 9c0 4.97-4.03 9-9 9s-9-4.03-9-9 4.03-9 9-9 9 4.03 9 9zm-10.041 4.765l6.677-6.677c.227-.227.227-.594 0-.821l-.82-.821c-.227-.227-.595-.227-.822 0l-5.446 5.445-2.542-2.542c-.227-.227-.594-.227-.821 0l-.821.821c-.227.227-.227.594 0 .821l3.774 3.774c.227.227.594.227.821 0z" transform="translate(-463 -963) translate(180 963) translate(283)"/>
                    <path fill="url(#5mf9fed2ga)" d="M22 4c2.21 0 4 1.79 4 4v26c0 2.21-1.79 4-4 4H4c-2.21 0-4-1.79-4-4V8c0-2.21 1.79-4 4-4h18zm-9 27c-1.105 0-2 .895-2 2s.895 2 2 2 2-.895 2-2-.895-2-2-2z" transform="translate(-463 -963) translate(180 963) translate(283)"/>
                    <path fill="url(#efe4latleb)" d="M35 9c0 4.97-4.03 9-9 9s-9-4.03-9-9 4.03-9 9-9 9 4.03 9 9zm-10.041 4.765l6.677-6.677c.227-.227.227-.594 0-.821l-.82-.821c-.227-.227-.595-.227-.822 0l-5.446 5.445-2.542-2.542c-.227-.227-.594-.227-.821 0l-.821.821c-.227.227-.227.594 0 .821l3.774 3.774c.227.227.594.227.821 0z" style="mix-blend-mode:multiply" transform="translate(-463 -963) translate(180 963) translate(283)"/>
                </g>
            </g>
        </g>
    </g>
</svg>
