<svg xmlns="http://www.w3.org/2000/svg" width="36" height="32" viewBox="0 0 36 32">
    <defs>
        <linearGradient id="jj0u7buzja" x1="0%" x2="100%" y1="100%" y2="0%">
            <stop offset="0%" stop-color="#B48AE7"/>
            <stop offset="100%" stop-color="#F68284"/>
        </linearGradient>
        <linearGradient id="sopdr0j16b" x1="50%" x2="50%" y1="100%" y2="0%">
            <stop offset="0%" stop-color="#635CFF"/>
            <stop offset="100%" stop-color="#B48AE7"/>
        </linearGradient>
    </defs>
    <g fill="none" fill-rule="evenodd">
        <g>
            <g>
                <g transform="translate(-747 -1297) translate(180 1297) translate(567)">
                    <path fill="url(#jj0u7buzja)" d="M2.894 1.447l25.528 12.764c.988.494 1.389 1.695.895 2.683-.194.387-.508.701-.895.895L2.894 30.553c-.988.494-2.189.093-2.683-.895-.139-.277-.211-.584-.211-.894V3.236c0-1.105.895-2 2-2 .31 0 .617.072.894.211z"/>
                    <rect fill="url(#sopdr0j16b)" style="mix-blend-mode:multiply" width="16" height="16" x="20" y="8" rx="8"/>
                </g>
            </g>
        </g>
    </g>
</svg>
