<svg xmlns="http://www.w3.org/2000/svg" width="40" height="32" viewBox="0 0 40 32">
    <defs>
        <linearGradient id="7uls04orwa" x1="0%" x2="100%" y1="100%" y2="0%">
            <stop offset="0%" stop-color="#B48AE7"/>
            <stop offset="100%" stop-color="#F68284"/>
        </linearGradient>
        <linearGradient id="ra4ejkx0bb" x1="50%" x2="50%" y1="100%" y2="0%">
            <stop offset="0%" stop-color="#635CFF"/>
            <stop offset="100%" stop-color="#B48AE7"/>
        </linearGradient>
    </defs>
    <g fill="none" fill-rule="evenodd">
        <g>
            <g>
                <g>
                    <path fill="url(#7uls04orwa)" d="M8 0h8c8.837 0 16 7.163 16 16v8c0 4.418-3.582 8-8 8H8c-4.418 0-8-3.582-8-8V8c0-4.418 3.582-8 8-8z" transform="translate(-463 -1297) translate(180 1297) translate(283)"/>
                    <path fill="url(#ra4ejkx0bb)" d="M40 10.414V21.5c0 1.38-1.12 2.5-2.5 2.5H26.414c-.552 0-1-.448-1-1 0-.265.106-.52.293-.707L38.293 9.707c.39-.39 1.024-.39 1.414 0 .188.188.293.442.293.707z" style="mix-blend-mode:multiply" transform="translate(-463 -1297) translate(180 1297) translate(283)"/>
                </g>
            </g>
        </g>
    </g>
</svg>
