<svg xmlns="http://www.w3.org/2000/svg" width="35" height="38" viewBox="0 0 35 38">
    <defs>
        <linearGradient id="qug9w11kga" x1="20.761%" x2="79.239%" y1="100%" y2="0%">
            <stop offset="0%" stop-color="#B48AE7"/>
            <stop offset="100%" stop-color="#F68284"/>
        </linearGradient>
        <linearGradient id="nf0o8pdn2b" x1="50%" x2="50%" y1="100%" y2="0%">
            <stop offset="0%" stop-color="#635CFF"/>
            <stop offset="100%" stop-color="#B48AE7"/>
        </linearGradient>
    </defs>
    <g fill="none" fill-rule="evenodd">
        <g>
            <g>
                <path fill="url(#qug9w11kga)" d="M22 4c2.21 0 4 1.79 4 4v26c0 2.21-1.79 4-4 4H4c-2.21 0-4-1.79-4-4V8c0-2.21 1.79-4 4-4h18zm0 28H4v2h18v-2zm-6-5H4v2h12v-2zm6 0h-4v2h4v-2zm0-5H4v2h18v-2zm-6-5H4v2h12v-2zm-4-9H4v2h8V8z" transform="translate(-180 -1320) translate(180 1320)"/>
                <path fill="url(#nf0o8pdn2b)" d="M35 9c0 4.97-4.03 9-9 9s-9-4.03-9-9 4.03-9 9-9 9 4.03 9 9zm-10.041 4.765l6.677-6.677c.227-.227.227-.594 0-.821l-.82-.821c-.227-.227-.595-.227-.822 0l-5.446 5.445-2.542-2.542c-.227-.227-.594-.227-.821 0l-.821.821c-.227.227-.227.594 0 .821l3.774 3.774c.227.227.594.227.821 0z" style="mix-blend-mode:multiply" transform="translate(-180 -1320) translate(180 1320)"/>
            </g>
        </g>
    </g>
</svg>
