<svg xmlns="http://www.w3.org/2000/svg" width="39" height="35" viewBox="0 0 39 35">
    <defs>
        <linearGradient id="1xr6u29yfa" x1="4.946%" x2="95.054%" y1="100%" y2="0%">
            <stop offset="0%" stop-color="#B48AE7"/>
            <stop offset="100%" stop-color="#F68284"/>
        </linearGradient>
        <linearGradient id="z4k8joycib" x1="50%" x2="50%" y1="100%" y2="0%">
            <stop offset="0%" stop-color="#635CFF"/>
            <stop offset="100%" stop-color="#B48AE7"/>
        </linearGradient>
    </defs>
    <g fill="none" fill-rule="evenodd">
        <g>
            <g>
                <g>
                    <path fill="#FFF" d="M.5 7.079c.072 0 .144.015.21.046l11.033 5.092c.798.368 1.716.368 2.514 0L25.29 7.125c.251-.116.548-.007.664.244.03.066.046.137.046.21V20.2c0 .368-.202.706-.526.88l-11.052 5.951c-.888.479-1.956.479-2.844 0L.526 21.081C.202 20.905 0 20.567 0 20.2V7.579c0-.276.224-.5.5-.5zM13.838.184l11.178 5.16c.251.115.36.412.245.663-.05.108-.137.194-.245.244l-11.178 5.16c-.532.245-1.144.245-1.676 0L.984 6.25c-.251-.115-.36-.413-.245-.663.05-.108.137-.195.245-.245L12.162.184c.532-.245 1.144-.245 1.676 0z" transform="translate(-463 -1324) translate(180 1320) translate(283 4.203)"/>
                    <path fill="url(#1xr6u29yfa)" d="M13.5 14.079c.072 0 .144.015.21.046l11.033 5.092c.798.368 1.716.368 2.514 0l11.033-5.092c.251-.116.548-.007.664.244.03.066.046.137.046.21V27.2c0 .368-.202.706-.526.88l-11.052 5.951c-.888.479-1.956.479-2.844 0l-11.052-5.95c-.324-.175-.526-.513-.526-.881V14.579c0-.276.224-.5.5-.5zm13.338-6.895l11.178 5.16c.251.115.36.412.245.663-.05.108-.137.194-.245.244l-11.178 5.16c-.532.245-1.144.245-1.676 0l-11.178-5.16c-.251-.115-.36-.413-.245-.663.05-.108.137-.195.245-.245l11.178-5.159c.532-.245 1.144-.245 1.676 0z" transform="translate(-463 -1324) translate(180 1320) translate(283 4.203)"/>
                    <path fill="url(#z4k8joycib)" d="M.5 7.079c.072 0 .144.015.21.046l11.033 5.092c.798.368 1.716.368 2.514 0L25.29 7.125c.251-.116.548-.007.664.244.03.066.046.137.046.21V20.2c0 .368-.202.706-.526.88l-11.052 5.951c-.888.479-1.956.479-2.844 0L.526 21.081C.202 20.905 0 20.567 0 20.2V7.579c0-.276.224-.5.5-.5zM13.838.184l11.178 5.16c.251.115.36.412.245.663-.05.108-.137.194-.245.244l-11.178 5.16c-.532.245-1.144.245-1.676 0L.984 6.25c-.251-.115-.36-.413-.245-.663.05-.108.137-.195.245-.245L12.162.184c.532-.245 1.144-.245 1.676 0z" style="mix-blend-mode:multiply" transform="translate(-463 -1324) translate(180 1320) translate(283 4.203)"/>
                </g>
            </g>
        </g>
    </g>
</svg>
