<svg xmlns="http://www.w3.org/2000/svg" width="35" height="34" viewBox="0 0 35 34">
    <defs>
        <linearGradient id="4oaudy1vva" x1="20.761%" x2="79.239%" y1="100%" y2="0%">
            <stop offset="0%" stop-color="#B48AE7"/>
            <stop offset="100%" stop-color="#F68284"/>
        </linearGradient>
    </defs>
    <g fill="none" fill-rule="evenodd">
        <g>
            <g>
                <g style="mix-blend-mode:multiply">
                    <path fill="url(#4oaudy1vva)" d="M22 0c2.21 0 4 1.79 4 4v26c0 2.21-1.79 4-4 4H4c-2.21 0-4-1.79-4-4V4c0-2.21 1.79-4 4-4h18zm0 28H4v2h18v-2zm-6-5H4v2h12v-2zm6 0h-4v2h4v-2zm-10-5H4v2h8v-2zm0-5H4v2h8v-2zm0-9H4v2h8V4z" transform="translate(-180 -967) translate(180 963) translate(0 4)"/>
                    <path stroke="#635CFF" stroke-linecap="round" stroke-linejoin="round" stroke-width="3" d="M21 13L29 21 37 13" transform="translate(-180 -967) translate(180 963) translate(0 4) rotate(-90 29 17)"/>
                    <path stroke="#635CFF" stroke-linecap="round" stroke-linejoin="round" stroke-width="3" d="M30.5 17L16.5 17" transform="translate(-180 -967) translate(180 963) translate(0 4)"/>
                </g>
            </g>
        </g>
    </g>
</svg>
