<svg xmlns="http://www.w3.org/2000/svg" width="168" height="32" viewBox="0 0 168 32">
    <defs>
        <linearGradient id="lt2egute6a" x1="50%" x2="50%" y1="100%" y2="0%">
            <stop offset="0%" stop-color="#635CFF"/>
            <stop offset="100%" stop-color="#B48AE7"/>
        </linearGradient>
    </defs>
    <g fill="none" fill-rule="evenodd">
        <g fill="url(#lt2egute6a)" transform="translate(-636 -1446)">
            <g>
                <g>
                    <path d="M149.673 25.223l-5.284 2.778c-.489.257-1.094.07-1.35-.42-.103-.194-.138-.417-.101-.634l1.01-5.884c.277-1.622-.26-3.277-1.439-4.426l-4.275-4.167c-.395-.385-.404-1.019-.018-1.414.153-.158.355-.26.572-.292l5.908-.858c1.629-.237 3.037-1.26 3.765-2.735l2.642-5.354c.245-.495.844-.699 1.34-.454.197.097.356.257.454.454l2.642 5.354c.728 1.475 2.136 2.498 3.765 2.735l5.908.858c.546.08.925.587.846 1.134-.032.217-.135.419-.292.572l-4.275 4.167c-1.179 1.149-1.716 2.804-1.438 4.426l1.009 5.884c.093.545-.272 1.062-.817 1.155-.216.037-.44.002-.634-.1l-5.284-2.779c-1.457-.766-3.197-.766-4.654 0zM115.673 25.223l-5.284 2.778c-.489.257-1.094.07-1.35-.42-.103-.194-.138-.417-.101-.634l1.01-5.884c.277-1.622-.26-3.277-1.439-4.426l-4.275-4.167c-.395-.385-.404-1.019-.018-1.414.153-.158.355-.26.572-.292l5.908-.858c1.629-.237 3.037-1.26 3.765-2.735l2.642-5.354c.245-.495.844-.699 1.34-.454.197.097.356.257.454.454l2.642 5.354c.728 1.475 2.136 2.498 3.765 2.735l5.908.858c.546.08.925.587.846 1.134-.032.217-.135.419-.292.572l-4.275 4.167c-1.179 1.149-1.716 2.804-1.438 4.426l1.009 5.884c.093.545-.272 1.062-.817 1.155-.216.037-.44.002-.634-.1l-5.284-2.779c-1.457-.766-3.197-.766-4.654 0zM81.673 25.223l-5.284 2.778c-.489.257-1.094.07-1.35-.42-.103-.194-.138-.417-.101-.634l1.01-5.884c.277-1.622-.26-3.277-1.439-4.426l-4.275-4.167c-.395-.385-.404-1.019-.018-1.414.153-.158.355-.26.572-.292l5.908-.858c1.629-.237 3.037-1.26 3.765-2.735l2.642-5.354c.245-.495.844-.699 1.34-.454.197.097.356.257.454.454l2.642 5.354c.728 1.475 2.136 2.498 3.765 2.735l5.908.858c.546.08.925.587.846 1.134-.032.217-.135.419-.292.572l-4.275 4.167c-1.179 1.149-1.716 2.804-1.438 4.426l1.009 5.884c.093.545-.272 1.062-.817 1.155-.216.037-.44.002-.634-.1l-5.284-2.779c-1.457-.766-3.197-.766-4.654 0zM47.673 25.223l-5.284 2.778c-.489.257-1.094.07-1.35-.42-.103-.194-.138-.417-.101-.634l1.01-5.884c.277-1.622-.26-3.277-1.439-4.426l-4.275-4.167c-.395-.385-.404-1.019-.018-1.414.153-.158.355-.26.572-.292l5.908-.858c1.629-.237 3.037-1.26 3.765-2.735l2.642-5.354c.245-.495.844-.699 1.34-.454.197.097.356.257.454.454l2.642 5.354c.728 1.475 2.136 2.498 3.765 2.735l5.908.858c.546.08.925.587.846 1.134-.032.217-.135.419-.292.572l-4.275 4.167c-1.179 1.149-1.716 2.804-1.438 4.426l1.009 5.884c.093.545-.272 1.062-.817 1.155-.216.037-.44.002-.634-.1l-5.284-2.779c-1.457-.766-3.197-.766-4.654 0zM13.673 25.223L8.39 28.001c-.489.257-1.094.07-1.35-.42-.103-.194-.138-.417-.101-.634l1.01-5.884c.277-1.622-.26-3.277-1.439-4.426L2.234 12.47c-.395-.385-.404-1.019-.018-1.414.153-.158.355-.26.572-.292l5.908-.858c1.629-.237 3.037-1.26 3.765-2.735l2.642-5.354c.245-.495.844-.699 1.34-.454.197.097.356.257.454.454l2.642 5.354c.728 1.475 2.136 2.498 3.765 2.735l5.908.858c.546.08.925.587.846 1.134-.032.217-.135.419-.292.572l-4.275 4.167c-1.179 1.149-1.716 2.804-1.438 4.426l1.009 5.884c.093.545-.272 1.062-.817 1.155-.216.037-.44.002-.634-.1l-5.284-2.779c-1.457-.766-3.197-.766-4.654 0z" style="mix-blend-mode:multiply" transform="translate(0 1373) translate(636 73)"/>
                </g>
            </g>
        </g>
    </g>
</svg>
