<svg xmlns="http://www.w3.org/2000/svg" width="128" height="32" viewBox="0 0 128 32">
    <g fill="none" fill-rule="evenodd">
        <g>
            <g>
                <g>
                    <path fill="#000" fill-rule="nonzero" d="M43.108 24.219L40.251 24.219 40.251 10.857 43.979 10.857 48.361 18.536 48.361 10.857 51.209 10.857 51.209 24.219 48.186 24.219 43.108 15.119zM62.427 10.859L53.712 10.859 53.712 24.219 62.427 24.219 62.427 21.651 56.801 21.651 56.801 18.401 62.002 18.401 62.002 15.723 56.817 15.723 56.817 13.484 62.427 13.484zM64.231 10.859L74.78 10.859 74.78 13.486 71.058 13.486 71.058 24.221 67.975 24.221 67.975 13.486 64.231 13.486zM67.977 13.486L64.231 13.486M76.702 21.178c.746.442 1.945 1.578 3.982 1.79 2.439.257 3.464-1.063 3.583-2.19.176-1.672-1.275-2.021-3.425-2.454-2.38-.47-3.908-.917-4.13-3.785-.167-2.152 1.649-4.087 5.177-3.939 1.353.057 2.781.459 3.499.93l-.01 2.09c-.524-.334-1.814-1.359-4.148-1.478-1.813-.093-2.807 1.087-2.82 2.084-.019 2.271 1.851 2.02 3.667 2.485 2.517.65 3.887 1.288 3.829 3.84-.053 2.379-2.132 3.927-5.25 3.927-1.388-.022-2.749-.386-3.964-1.059l.01-2.241zM90.716 10.859v7.954c0 2.983 1.261 4.256 2.954 4.256 1.864 0 3.087-1.311 3.087-4.256V10.86h1.657v7.835c0 4.117-2.052 5.788-4.8 5.788-2.598 0-4.555-1.552-4.555-5.727v-7.896h1.657zM103.216 10.859H104.794V24.22H103.216zM107.55 10.859L117.719 10.859 117.719 12.429 113.416 12.429 113.416 24.219 111.832 24.219 111.832 12.429 107.55 12.429zM128 10.859L120.183 10.859 120.183 24.219 128 24.219 128 22.679 121.701 22.679 121.701 17.702 128 17.702 128 16.135 121.701 16.135 121.701 12.429 128 12.429z" transform="translate(-519 -1083) translate(180 890) translate(339 193)"/>
                    <path fill="#00467F" d="M0 0L20.724 0 20.724 17.797 12.653 7.534 0 7.534zM12.609 14.302c2.69 3.339 5.271 6.785 7.933 10.152h12.722V32H12.609V14.302z" transform="translate(-519 -1083) translate(180 890) translate(339 193)"/>
                    <path fill="#B9C7D4" d="M22.024 7.506L22.024 1.528 31.805 1.528 31.805 23.136 25.306 23.136 25.306 7.506zM8.036 8.817L8.036 24.32 11.251 24.32 11.251 30.426 1.54 30.426 1.54 8.817z" transform="translate(-519 -1083) translate(180 890) translate(339 193)"/>
                </g>
            </g>
        </g>
    </g>
</svg>
