<svg xmlns="http://www.w3.org/2000/svg" width="123" height="30" viewBox="0 0 123 30">
    <g fill="none" fill-rule="evenodd">
        <g fill-rule="nonzero">
            <g>
                <g>
                    <path fill="#253B80" d="M45.992 6.71h-6.807c-.466 0-.862.337-.934.796L35.498 24.94c-.055.344.212.654.561.654h3.25c.465 0 .862-.338.934-.798l.743-4.702c.071-.46.468-.798.933-.798h2.155c4.484 0 7.071-2.168 7.747-6.462.305-1.879.013-3.355-.868-4.39-.967-1.134-2.683-1.735-4.961-1.735zm.785 6.366c-.372 2.44-2.238 2.44-4.043 2.44h-1.027l.72-4.556c.044-.275.282-.478.561-.478h.47c1.23 0 2.39 0 2.989.7.357.417.466 1.037.33 1.894zM66.338 12.998h-3.26c-.277 0-.517.203-.56.478l-.144.91-.228-.33c-.706-1.022-2.28-1.364-3.85-1.364-3.602 0-6.678 2.725-7.277 6.547-.312 1.907.131 3.73 1.214 5.001.993 1.17 2.415 1.656 4.106 1.656 2.902 0 4.511-1.864 4.511-1.864l-.145.905c-.055.346.212.656.559.656H64.2c.467 0 .86-.338.935-.798l1.761-11.143c.056-.343-.21-.654-.558-.654zm-4.543 6.336c-.315 1.86-1.793 3.109-3.678 3.109-.946 0-1.703-.303-2.189-.878-.481-.57-.664-1.383-.511-2.287.293-1.844 1.796-3.134 3.652-3.134.926 0 1.678.307 2.174.887.497.585.694 1.403.552 2.303zM83.697 12.998h-3.275c-.313 0-.606.155-.784.414l-4.517 6.647-1.915-6.387c-.12-.4-.49-.674-.908-.674H69.08c-.391 0-.663.382-.539.75l3.608 10.575-3.392 4.782c-.266.377.002.895.463.895h3.272c.31 0 .6-.151.777-.406l10.894-15.706c.26-.376-.007-.89-.466-.89z" transform="translate(-249 -940) translate(180 890) translate(69 50)"/>
                    <path fill="#179BD7" d="M94.541 6.71h-6.807c-.465 0-.861.337-.934.796L84.047 24.94c-.054.344.212.654.56.654H88.1c.325 0 .602-.236.653-.559l.781-4.941c.072-.46.47-.798.934-.798h2.154c4.484 0 7.07-2.168 7.748-6.462.305-1.879.012-3.355-.87-4.39-.966-1.134-2.68-1.735-4.959-1.735zm.786 6.366c-.372 2.44-2.238 2.44-4.043 2.44h-1.026l.721-4.556c.043-.275.28-.478.56-.478h.47c1.229 0 2.39 0 2.988.7.358.417.466 1.037.33 1.894zM114.886 12.998h-3.257c-.28 0-.518.203-.56.478l-.144.91-.229-.33c-.705-1.022-2.278-1.364-3.848-1.364-3.602 0-6.677 2.725-7.277 6.547-.31 1.907.13 3.73 1.214 5.001.995 1.17 2.414 1.656 4.105 1.656 2.902 0 4.512-1.864 4.512-1.864l-.146.905c-.054.346.212.656.562.656h2.935c.464 0 .86-.338.933-.798l1.763-11.143c.054-.343-.213-.654-.563-.654zm-4.543 6.336c-.312 1.86-1.792 3.109-3.677 3.109-.945 0-1.703-.303-2.189-.878-.482-.57-.663-1.383-.511-2.287.295-1.844 1.796-3.134 3.652-3.134.926 0 1.678.307 2.174.887.498.585.695 1.403.551 2.303zM118.73 7.187l-2.795 17.753c-.054.344.212.654.56.654h2.808c.467 0 .863-.338.935-.798l2.755-17.433c.055-.344-.212-.655-.56-.655h-3.144c-.278.001-.517.204-.56.48z" transform="translate(-249 -940) translate(180 890) translate(69 50)"/>
                    <path fill="#253B80" d="M7.232 28.982l.52-3.302-1.16-.027H1.057L4.904 1.284c.012-.073.05-.142.107-.19.057-.05.13-.076.205-.076h9.336c3.099 0 5.238.644 6.354 1.916.524.596.857 1.22 1.019 1.905.169.72.172 1.58.006 2.629l-.011.076v.672l.523.296c.44.234.791.502 1.06.808.448.51.737 1.158.86 1.926.126.79.084 1.731-.123 2.796-.238 1.224-.625 2.291-1.146 3.164-.48.804-1.09 1.471-1.816 1.988-.693.491-1.516.864-2.447 1.103-.901.234-1.93.352-3.057.352h-.727c-.52 0-1.024.187-1.42.522-.397.342-.66.81-.74 1.32l-.055.298-.92 5.82-.042.214c-.01.068-.03.101-.057.124-.025.021-.061.035-.096.035H7.232z" transform="translate(-249 -940) translate(180 890) translate(69 50)"/>
                    <path fill="#179BD7" d="M22.939 7.622c-.028.178-.06.36-.096.547-1.231 6.313-5.443 8.494-10.822 8.494H9.28c-.657 0-1.211.477-1.314 1.125l-1.402 8.884-.397 2.518c-.067.425.261.809.691.809h4.858c.575 0 1.064-.418 1.155-.984l.047-.247.915-5.797.059-.318c.09-.569.579-.987 1.154-.987h.727c4.706 0 8.39-1.908 9.468-7.431.45-2.308.217-4.234-.974-5.59-.36-.408-.807-.747-1.33-1.023z" transform="translate(-249 -940) translate(180 890) translate(69 50)"/>
                    <path fill="#222D65" d="M21.65 7.109c-.187-.055-.381-.105-.58-.15-.2-.043-.405-.082-.616-.116-.739-.119-1.548-.176-2.415-.176h-7.317c-.18 0-.351.041-.505.115-.337.162-.588.48-.649.872L8.012 17.5l-.045.287c.103-.648.657-1.125 1.315-1.125h2.739c5.38 0 9.591-2.182 10.822-8.494.037-.187.068-.37.096-.547-.312-.165-.65-.306-1.013-.427-.09-.03-.182-.058-.275-.086z" transform="translate(-249 -940) translate(180 890) translate(69 50)"/>
                    <path fill="#253B80" d="M9.568 7.654c.061-.391.312-.71.65-.871.154-.074.324-.115.504-.115h7.317c.867 0 1.676.057 2.415.176.21.034.416.073.616.117.199.044.393.094.58.149.094.028.187.056.277.085.364.12.701.263 1.013.427.366-2.333-.003-3.922-1.266-5.36C20.28.678 17.768 0 14.553 0H5.217C4.56 0 4 .477 3.898 1.126L.01 25.746c-.077.486.3.926.791.926h5.764l1.447-9.17 1.556-9.848z" transform="translate(-249 -940) translate(180 890) translate(69 50)"/>
                </g>
            </g>
        </g>
    </g>
</svg>
