<svg xmlns="http://www.w3.org/2000/svg" width="162" height="32" viewBox="0 0 162 32">
    <g fill="none" fill-rule="evenodd">
        <g fill-rule="nonzero">
            <g>
                <g>
                    <g fill="#010202">
                        <path d="M42.472 16.41c-2.051 0-3.092-1.828-3.092-3.591 0-1.764 1.136-3.528 2.998-3.528.883 0 1.987.44 2.398 1.04l2.177-2.174c-1.042-1.102-2.714-1.764-4.575-1.764-3.787 0-6.532 2.709-6.532 6.426 0 3.78 2.713 6.425 6.595 6.425 1.861 0 3.565-.536 4.575-1.638l-2.114-2.268c-.473.63-1.483 1.071-2.43 1.071zm-12.148 2.519H33.7V6.739h-3.376v12.19zm-6.122-5.512c0 1.417-.947 2.96-2.682 2.96-1.357 0-2.051-.944-2.051-2.929V6.74h-3.376v7.559c0 2.52 1.262 4.976 4.606 4.976 1.578 0 2.903-1.26 3.597-2.173h.064v1.827h3.219V6.739h-3.377v6.678zm-14.2-5.134H9.94c-.473-.535-1.767-1.89-3.85-1.89C2.652 6.394 0 9.072 0 12.788c0 3.748 2.43 6.489 5.932 6.489 1.578 0 3.06-.851 3.913-1.796h.063v7.465h3.376V6.74h-3.25v1.543h-.031zm-3.25 8.126c-2.082 0-3.281-1.827-3.281-3.622 0-1.7 1.073-3.559 3.281-3.559 2.02 0 3.25 1.858 3.25 3.622 0 1.732-1.23 3.56-3.25 3.56zM83.524 6.393c-3.85 0-6.626 2.678-6.626 6.394 0 3.843 2.84 6.52 6.626 6.52 3.787 0 6.627-2.708 6.627-6.52 0-3.685-2.777-6.394-6.627-6.394zm0 10.016c-2.208 0-3.187-1.858-3.187-3.622 0-1.7 1.01-3.559 3.187-3.559 2.21 0 3.187 1.858 3.187 3.559 0 1.732-.978 3.622-3.187 3.622zm42.157-4.976c-1.736-.41-2.335-.63-2.335-1.323 0-.976 1.23-1.165 1.798-1.165 1.041 0 2.24.63 2.682 1.228l1.988-1.89c-.915-1.165-2.713-1.826-4.638-1.826-2.43 0-4.985 1.228-4.985 3.968 0 2.362 1.83 3.055 3.66 3.496 1.893.441 2.587.756 2.587 1.543 0 1.135-1.294 1.323-1.736 1.323-1.104 0-2.366-.63-3.06-1.449l-2.051 2.08c1.104 1.228 3.029 1.983 4.985 1.983 3.282 0 5.238-1.574 5.238-4.157-.063-2.583-2.43-3.402-4.133-3.81zm-6.374-4.693h-4.355l-4.354 5.07h-.063V.032h-3.377V18.93h3.377v-6.016h.063l4.512 6.016h4.45l-5.239-6.646 4.986-5.543zm-50.014-.347c-1.546 0-2.682.662-3.755 1.67h-.031V0h-3.376v18.897h3.218v-1.732h.063c.757 1.26 2.272 2.08 3.85 2.08 3.47 0 6.121-2.741 6.121-6.49-.031-3.653-2.65-6.362-6.09-6.362zm-.662 10.016c-2.02 0-3.25-1.795-3.25-3.559 0-1.732 1.23-3.622 3.25-3.622 2.177 0 3.281 1.858 3.281 3.559 0 1.795-1.168 3.622-3.281 3.622zm-7.763-9.67h-4.354l-4.355 5.072h-.063V.03H48.72V18.93h3.376v-6.016h.063l4.512 6.016h4.45l-5.238-6.646 4.985-5.543zm37.455-.346c-3.85 0-6.626 2.678-6.626 6.394 0 3.843 2.84 6.52 6.626 6.52 3.787 0 6.627-2.708 6.627-6.52 0-3.685-2.777-6.394-6.627-6.394zm0 10.016c-2.209 0-3.186-1.858-3.186-3.622 0-1.7 1.009-3.559 3.186-3.559 2.21 0 3.187 1.858 3.187 3.559.032 1.732-.978 3.622-3.187 3.622z" transform="translate(-502 -939) translate(180 890) translate(322 49) translate(32.186 7.055)"/>
                    </g>
                    <g transform="translate(-502 -939) translate(180 890) translate(322 49)">
                        <ellipse cx="14.2" cy="14.173" fill="#2FA037" rx="14.2" ry="14.173"/>
                        <path fill="#FFF" d="M3.945 14.173c0 3.055 2.46 5.512 5.522 5.512h.788v-2.047h-.788c-1.925 0-3.472-1.544-3.472-3.465 0-1.921 1.547-3.464 3.472-3.464h1.893v10.708c0 1.134.915 2.047 2.05 2.047V8.661H9.468c-3.061 0-5.522 2.489-5.522 5.512zm14.988-5.512h-.79v2.048h.79c1.925 0 3.47 1.543 3.47 3.464s-1.545 3.465-3.47 3.465H17.04V6.929c0-1.134-.915-2.047-2.052-2.047v14.803h3.945c3.06 0 5.522-2.457 5.522-5.512 0-3.023-2.493-5.512-5.522-5.512z"/>
                    </g>
                    <path fill="#010202" d="M46.07 3.244c.504 0 .946-.41.946-.945 0-.504-.41-.945-.946-.945-.505 0-.947.41-.947.945.031.504.441.945.947.945zm-5.586.63c-.915 0-1.64.567-1.924 1.165h-.032V4.031h-1.483v6.205h1.546V6.835c0-.82.474-1.67 1.452-1.67 1.01 0 1.167.914 1.167 1.638v3.433h1.547V6.362c.03-1.26-.663-2.488-2.273-2.488zm-6.563 6.362h1.546V4.031h-1.546v6.205zm28.241-6.992c.505 0 .947-.41.947-.945 0-.504-.41-.945-.947-.945-.504 0-.946.41-.946.945 0 .504.41.945.946.945zm-2.524.787v1.386h1.735v4.82h1.547v-4.82h1.735V4.031h-5.017zm-2.65 6.205h1.546V4.031h-1.547v6.205zM43.576 5.417h1.735v4.82h1.547v-4.82h1.735V4.031h-5.049v1.386h.032zm10.255 2.047c0 .82-.473 1.67-1.451 1.67-1.01 0-1.168-.913-1.168-1.638V4.063h-1.546v3.874c0 1.26.663 2.52 2.303 2.52.916 0 1.641-.567 1.925-1.166h.032V10.3h1.483V4.095h-1.578v3.37z" transform="translate(-502 -939) translate(180 890) translate(322 49)"/>
                </g>
            </g>
        </g>
    </g>
</svg>
