<svg xmlns="http://www.w3.org/2000/svg" xmlns:xlink="http://www.w3.org/1999/xlink" width="513" height="320" viewBox="0 0 622 372">
    <defs>
        <linearGradient id="7feszm2pyd" x1="0%" x2="100%" y1="41.454%" y2="58.546%">
            <stop offset="0%" stop-color="#152EE4"/>
            <stop offset="100%" stop-color="#635CFF"/>
        </linearGradient>
        <linearGradient id="z2i7krp90e" x1="0%" x2="99.428%" y1="41.405%" y2="58.497%">
            <stop offset="0%" stop-color="#B48AE7"/>
            <stop offset="100%" stop-color="#F281C7"/>
        </linearGradient>
        <linearGradient id="zjh7achr3f" x1="0%" x2="112.766%" y1="54.631%" y2="45.369%">
            <stop offset="0%" stop-color="#B48AE7"/>
            <stop offset="100%" stop-color="#F68284"/>
        </linearGradient>
        <linearGradient id="e1gxfw513i" x1="50%" x2="50%" y1="100%" y2="0%">
            <stop offset="0%" stop-color="#635CFF"/>
            <stop offset="100%" stop-color="#B48AE7"/>
        </linearGradient>
        <linearGradient id="0uigrppiwj" x1="50%" x2="28.284%" y1="0%" y2="81.811%">
            <stop offset="0%" stop-color="#DE8CE1"/>
            <stop offset="100%" stop-color="#F68284"/>
        </linearGradient>
        <linearGradient id="w6k8sycd1k" x1="50%" x2="50%" y1="100%" y2="-56.162%">
            <stop offset="0%" stop-color="#B48AE7"/>
            <stop offset="100%" stop-color="#2700D9"/>
        </linearGradient>
        <linearGradient id="of36nf96fl" x1="0%" x2="112.766%" y1="56.612%" y2="43.388%">
            <stop offset="0%" stop-color="#B48AE7"/>
            <stop offset="100%" stop-color="#F68284"/>
        </linearGradient>
        <path id="14c2nhzfra" d="M794 380H6c-3.314 0-6-2.686-6-6V6c0-3.314 2.686-6 6-6h788c3.314 0 6 2.686 6 6v368c0 3.314-2.686 6-6 6z"/>
        <path id="p3z198hy4h" d="M0 0H476V33.462H0z"/>
        <filter id="81zyqwba8g" width="100.8%" height="112%" x="-.4%" y="-3%" filterUnits="objectBoundingBox">
            <feOffset dy="1" in="SourceAlpha" result="shadowOffsetOuter1"/>
            <feGaussianBlur in="shadowOffsetOuter1" result="shadowBlurOuter1" stdDeviation=".5"/>
            <feColorMatrix in="shadowBlurOuter1" values="0 0 0 0 0 0 0 0 0 0 0 0 0 0 0 0 0 0 0.05 0"/>
        </filter>
        <rect id="vf2jk6peob" width="476" height="290" x="0" y="0" rx="8"/>
    </defs>
    <g fill="none" fill-rule="evenodd">
        <g>
            <g>
                <g transform="translate(-981 -149) translate(981.576 150)">
                    <rect width="506" height="380" rx="6"/>
                    <use fill="#FFF" stroke="#FFF" opacity=".52" xlink:href="#14c2nhzfra"/>
                </g>
                <g transform="translate(-981 -149) translate(981.576 150) translate(81.596 45)">
                    <mask id="e10vjz18ec" fill="#fff">
                        <use xlink:href="#vf2jk6peob"/>
                    </mask>
                    <use fill="#FFF" xlink:href="#vf2jk6peob"/>
                    <g fill="#FFF" mask="url(#e10vjz18ec)">
                        <path d="M0 0H476V290H0z"/>
                    </g>
                    <g mask="url(#e10vjz18ec)">
                        <g>
                            <g transform="translate(37.188 44.615) translate(0 25.654)">
                                <path fill="#F5F0F4" d="M0 8.01C0 3.586 3.58 0 8 0h64c4.418 0 8 3.582 8 8.01v22.98c0 4.424-3.58 8.01-8 8.01H8c-4.418 0-8-3.582-8-8.01V8.01z"/>
                                <rect width="25" height="4" x="16" y="11" fill="#B0A4C4" opacity=".5" rx="2"/>
                                <rect width="44" height="8" x="10" y="21" fill="#B0A4C4" rx="4"/>
                                <ellipse cx="10.784" cy="13.013" fill="#F281C7" rx="1.116" ry="1.115"/>
                                <path fill="#B0A4C4" d="M66.566 12.641L69.665 12.641 68.115 14.5z"/>
                            </g>
                            <g transform="translate(37.188 44.615) translate(0 72.654)">
                                <path fill="#F5F0F4" d="M0 8.01C0 3.586 3.58 0 8 0h64c4.418 0 8 3.582 8 8.01v22.98c0 4.424-3.58 8.01-8 8.01H8c-4.418 0-8-3.582-8-8.01V8.01z"/>
                                <rect width="25" height="4" x="16" y="11" fill="#B0A4C4" opacity=".5" rx="2"/>
                                <rect width="44" height="8" x="10" y="21" fill="#B0A4C4" rx="4"/>
                                <ellipse cx="10.784" cy="13.013" fill="#635CFF" rx="1.116" ry="1.115"/>
                                <path fill="#B0A4C4" d="M66.566 12.641L69.665 12.641 68.115 14.5z"/>
                            </g>
                            <g fill="#B0A4C4" opacity=".3" transform="translate(37.188 44.615) translate(.813 221.385)">
                                <rect width="5" height="5" rx="2.5"/>
                                <rect width="140" height="5" x="7" rx="2.5"/>
                            </g>
                            <g transform="translate(37.188 44.615) translate(87.763 25.654)">
                                <g fill="#F5F0F4">
                                    <rect width="313" height="178" rx="8"/>
                                </g>
                                <rect width="35" height="8" x="11.238" y="13.115" fill="#B0A4C4" rx="4"/>
                                <rect width="18" height="8" x="153.238" y="13.115" fill="#B0A4C4" opacity=".2" rx="4"/>
                                <rect width="18" height="8" x="176.238" y="13.115" fill="#B0A4C4" opacity=".2" rx="4"/>
                                <rect width="18" height="8" x="199.238" y="13.115" fill="#B0A4C4" opacity=".2" rx="4"/>
                                <rect width="18" height="8" x="222.238" y="13.115" fill="#B0A4C4" rx="4"/>
                                <rect width="18" height="8" x="245.238" y="13.115" fill="#B0A4C4" opacity=".2" rx="4"/>
                                <g fill="#B0A4C4" opacity=".3">
                                    <g transform="translate(20.05 165.73)">
                                        <rect width="15" height="5" rx="2.5"/>
                                    </g>
                                    <g transform="translate(20.05 165.73) translate(30)">
                                        <rect width="15" height="5" rx="2.5"/>
                                    </g>
                                    <g transform="translate(20.05 165.73) translate(60)">
                                        <rect width="15" height="5" rx="2.5"/>
                                    </g>
                                    <g transform="translate(20.05 165.73) translate(90)">
                                        <rect width="15" height="5" rx="2.5"/>
                                    </g>
                                    <g transform="translate(20.05 165.73) translate(120)">
                                        <rect width="15" height="5" rx="2.5"/>
                                    </g>
                                    <g transform="translate(20.05 165.73) translate(150)">
                                        <rect width="15" height="5" rx="2.5"/>
                                    </g>
                                    <g transform="translate(20.05 165.73) translate(180)">
                                        <rect width="15" height="5" rx="2.5"/>
                                    </g>
                                    <g transform="translate(20.05 165.73) translate(210)">
                                        <rect width="15" height="5" rx="2.5"/>
                                    </g>
                                    <g transform="translate(20.05 165.73) translate(240)">
                                        <rect width="15" height="5" rx="2.5"/>
                                    </g>
                                    <g transform="translate(20.05 165.73) translate(270)">
                                        <rect width="15" height="5" rx="2.5"/>
                                    </g>
                                </g>
                                <g fill="#B0A4C4" opacity=".3" transform="translate(8.05 35.73)">
                                    <rect width="6" height="6" rx="3"/>
                                </g>
                                <g fill="#B0A4C4" opacity=".3" transform="translate(8.05 49.73)">
                                    <rect width="6" height="6" rx="3"/>
                                </g>
                                <g fill="#B0A4C4" opacity=".3" transform="translate(8.05 63.73)">
                                    <rect width="6" height="6" rx="3"/>
                                </g>
                                <g fill="#B0A4C4" opacity=".3" transform="translate(8.05 79.73)">
                                    <rect width="6" height="6" rx="3"/>
                                </g>
                                <g fill="#B0A4C4" opacity=".3" transform="translate(8.05 94.73)">
                                    <rect width="6" height="6" rx="3"/>
                                </g>
                                <g fill="#B0A4C4" opacity=".3" transform="translate(8.05 109.73)">
                                    <rect width="6" height="6" rx="3"/>
                                </g>
                                <g fill="#B0A4C4" opacity=".3" transform="translate(8.05 124.73)">
                                    <rect width="6" height="6" rx="3"/>
                                </g>
                                <g fill="#B0A4C4" opacity=".3" transform="translate(8.05 139.73)">
                                    <rect width="6" height="6" rx="3"/>
                                </g>
                                <g fill="#B0A4C4" opacity=".3" transform="translate(8.05 154.73)">
                                    <rect width="6" height="6" rx="3"/>
                                </g>
                                <g stroke="#A4B5C4" stroke-dasharray="0 4" stroke-linecap="square" stroke-width=".5">
                                    <path d="M.122.936L280.122.936M.122 15.936L280.122 15.936M.122 30.936L280.122 30.936M.122 45.936L280.122 45.936M.122 60.936L280.122 60.936M.122 75.936L280.122 75.936M.122 90.936L280.122 90.936M.122 104.936L280.122 104.936M.122 119.936L280.122 119.936" transform="translate(23.428 37.295)"/>
                                </g>
                                <g stroke-linecap="round" stroke-linejoin="round">
                                    <path stroke="url(#7feszm2pyd)" stroke-width=".744" d="M0 114.535s14.409-10.077 31.238-9.295c16.828.782 18.85-15.247 29.75-15.615 10.899-.369 11.873 3.438 31.609 3.346 19.735-.093 15.556-30.487 29.006-30.487 13.45 0 19.252 21.27 33.84 22.307 14.59 1.038 40.747-70.807 53.923-70.269 13.175.538 22.597 33.823 36.071 34.577 6.789.38 9.875-12.392 13.727-25.003 3.794-12.421 8.331-24.687 17.883-24.074" transform="translate(23.428 38.304)"/>
                                    <path stroke="url(#z2i7krp90e)" d="M0 114.535s13.211 1.963 30.122-3.346c16.91-5.31 19.914-26.28 30.865-29 10.952-2.721 13.814 19.151 34.585 19.333 20.771.182 12.604-24.184 26.031-24.167 13.427.017 19.737 33.462 34.956 33.462 15.22 0 34.351-96.295 52.807-96.295 18.455 0 18.266 14.872 34.716 14.872 16.45 0 13.777-29.54 32.965-29.372" transform="translate(23.428 38.304)"/>
                                </g>
                            </g>
                            <g>
                                <g fill="url(#zjh7achr3f)" transform="translate(37.188 44.615) translate(208.981) translate(85.903)">
                                    <rect width="46" height="14" rx="7"/>
                                </g>
                                <g fill="#FFF" stroke="#DEDEDE" stroke-width=".5" transform="translate(37.188 44.615) translate(208.981)">
                                    <rect width="79.5" height="13.5" x=".25" y=".25" rx="6.75"/>
                                </g>
                            </g>
                        </g>
                    </g>
                    <g mask="url(#e10vjz18ec)">
                        <g>
                            <use fill="#000" filter="url(#81zyqwba8g)" xlink:href="#p3z198hy4h"/>
                            <use fill="#FFF" xlink:href="#p3z198hy4h"/>
                        </g>
                        <g>
                            <path fill="url(#e1gxfw513i)" d="M2.221 5.97l8.371-.085c.384-.004.699.304.703.688v.013l-.063 7.455-9.038-2.075c-.487-.111-.827-.553-.81-1.053l.149-4.272c.013-.371.316-.667.688-.671z" transform="translate(12 9) rotate(-30 6.328 9.96)"/>
                            <path fill="url(#0uigrppiwj)" d="M5.356 0h7.6C13.534 0 14 .467 14 1.043v9.068c0 .305-.2.575-.491.665L3.62 13.812c.462-.236.692-.708.692-1.416V1.043C4.312.467 4.78 0 5.356 0z" transform="translate(12 9)"/>
                            <path fill="url(#w6k8sycd1k)" d="M8.936 4.544l.007.01 3.673 6.488-8.865 2.722-.082.02.062-.036c.387-.252.581-.703.581-1.352V6.468l3.672-2.17c.33-.195.757-.085.952.246z" transform="translate(12 9)"/>
                        </g>
                        <g fill="#B0A4C4" transform="translate(37.188 12.385)">
                            <rect width="22" height="8" rx="4"/>
                        </g>
                        <g fill="#B0A4C4" opacity=".3" transform="translate(67.188 12.385)">
                            <rect width="22" height="8" rx="4"/>
                        </g>
                        <g fill="#B0A4C4" opacity=".3" transform="translate(97.188 12.385)">
                            <rect width="22" height="8" rx="4"/>
                        </g>
                        <g fill="#B0A4C4" opacity=".3" transform="translate(127.188 12.385)">
                            <rect width="22" height="8" rx="4"/>
                        </g>
                        <g fill="#B0A4C4" opacity=".3" transform="translate(157.188 12.385)">
                            <rect width="22" height="8" rx="4"/>
                        </g>
                        <g fill="#B0A4C4" opacity=".3" transform="translate(187.188 12.385)">
                            <rect width="22" height="8" rx="4"/>
                        </g>
                        <g fill="#B0A4C4" opacity=".3" transform="translate(37.188 48.385)">
                            <rect width="22" height="8" rx="4"/>
                        </g>
                        <g fill="url(#of36nf96fl)" transform="translate(67.188 48.385)">
                            <rect width="22" height="8" rx="4"/>
                        </g>
                        <g fill="#B0A4C4" opacity=".3" transform="translate(97.188 48.385)">
                            <rect width="22" height="8" rx="4"/>
                        </g>
                        <g fill="#B0A4C4" opacity=".3" transform="translate(127.188 48.385)">
                            <rect width="22" height="8" rx="4"/>
                        </g>
                        <g fill="#B0A4C4" opacity=".3" transform="translate(157.188 48.385)">
                            <rect width="22" height="8" rx="4"/>
                        </g>
                    </g>
                </g>
                <path fill="#D7D1E1" d="M15 10c2.761 0 5 2.239 5 5 0 2.762-2.238 5-5 5s-5-2.238-5-5c0-2.761 2.239-5 5-5zm16 0c2.761 0 5 2.239 5 5 0 2.762-2.238 5-5 5s-5-2.238-5-5c0-2.761 2.239-5 5-5zm17 0c2.761 0 5 2.239 5 5 0 2.762-2.238 5-5 5s-5-2.238-5-5c0-2.761 2.239-5 5-5z" transform="translate(-981 -149) translate(981.576 150)"/>
            </g>
        </g>
    </g>
</svg>
