<svg xmlns="http://www.w3.org/2000/svg" width="127" height="32" viewBox="0 0 127 32">
    <g fill="none" fill-rule="evenodd">
        <g fill="#3E4348">
            <g>
                <g>
                    <path d="M5.337 0H26.6c1.415 0 2.773.563 3.774 1.566 1.002 1.002 1.564 2.363 1.564 3.781v21.304c0 2.954-2.39 5.349-5.338 5.349H5.337C2.389 32 0 29.605 0 26.651V5.347C0 2.394 2.39 0 5.337 0zm19.115 26.183c.93 0 1.684-.756 1.684-1.688l-.005-16.988c0-.932-.754-1.688-1.684-1.688H7.494c-.447 0-.876.178-1.192.495-.316.317-.493.746-.493 1.194v16.987c0 .932.754 1.688 1.685 1.688h16.958z" transform="translate(-1067 -939) translate(180 890) translate(887 49)"/>
                    <path fill-rule="nonzero" d="M12.58 20.339c-.53-.005-.958-.437-.958-.97v-6.78c-.002-.258.1-.506.281-.689.182-.183.428-.285.685-.285h6.778c.257 0 .504.103.685.286.181.182.283.43.282.687v6.78c0 .258-.1.505-.282.688-.181.183-.428.285-.685.286l-6.785-.003zM48.19 14.574c-.988-.27-1.924-.525-2.65-.85-1.346-.602-1.972-1.437-1.972-2.626 0-2.248 2.17-3.26 4.33-3.26 2.053 0 3.846.85 5.05 2.393l.082.106 1.735-1.36-.083-.106c-1.601-2.04-3.972-3.158-6.679-3.158-1.802 0-3.454.488-4.648 1.374-1.345.986-2.055 2.416-2.055 4.123 0 3.966 3.728 4.934 6.725 5.711 3.032.802 4.89 1.41 4.89 3.727 0 2.28-1.84 3.754-4.689 3.754-1.408 0-4.016-.374-5.656-2.883l-.075-.118-1.826 1.324.071.107c1.55 2.35 4.224 3.7 7.347 3.7 4.24 0 7.092-2.399 7.092-5.967 0-4.083-3.877-5.14-6.988-5.991z" transform="translate(-1067 -939) translate(180 890) translate(887 49)"/>
                    <path d="M69.013 13.75v-2.148h2.04v20.395h-2.04v-7.968c-1.165 1.6-2.913 2.476-4.968 2.476-3.88 0-6.591-3.112-6.591-7.607s2.718-7.633 6.591-7.633c2.041 0 3.789.88 4.968 2.485zm-9.409 5.123c0 4.16 2.379 5.644 4.606 5.644l.004.001c2.915 0 4.8-2.236 4.8-5.645 0-3.41-1.888-5.614-4.804-5.614-3.395 0-4.606 2.9-4.606 5.614z" transform="translate(-1067 -939) translate(180 890) translate(887 49)"/>
                    <path fill-rule="nonzero" d="M84.546 11.602v8.05c0 2.818-1.926 4.865-4.58 4.865-2.203 0-3.275-1.31-3.275-4.004v-8.91h-2.04v9.327c0 3.493 1.894 5.579 5.068 5.579 1.977 0 3.675-.84 4.828-2.376v2.043h2.041V11.602h-2.042z" transform="translate(-1067 -939) translate(180 890) translate(887 49)"/>
                    <path d="M90.431 13.133c1.505-1.184 3.547-1.863 5.6-1.863 3.243 0 5.178 1.616 5.172 4.327V26.18h-2.042v-1.616c-1.03 1.293-2.521 1.949-4.44 1.949-3.125 0-5.068-1.713-5.068-4.467 0-3.582 3.369-4.144 4.804-4.383.234-.039.475-.076.717-.113l.009-.002c1.96-.302 3.984-.614 3.984-2.28 0-1.887-2.443-2.033-3.192-2.033-1.322 0-3.189.393-4.458 1.495l-.116.101-1.066-1.62.096-.077zm1.353 8.797c0 2.335 2.194 2.588 3.138 2.588h.001c2.052 0 4.247-1.096 4.243-4.176v-2.109c-.996.63-2.412.876-3.676 1.096l-.021.004-.634.113c-2.024.376-3.051.86-3.051 2.484z" transform="translate(-1067 -939) translate(180 890) translate(887 49)"/>
                    <path fill-rule="nonzero" d="M113.026 11.877c-.485-.346-1.249-.553-2.045-.553-1.637.022-3.168.813-4.136 2.135v-1.863h-2.04V26.17h2.04v-7.794c0-3.456 1.939-5.004 3.858-5.004.562-.008 1.119.11 1.63.346l.137.073.646-1.854-.09-.059z" transform="translate(-1067 -939) translate(180 890) translate(887 49)"/>
                    <path d="M113.624 18.929c0-4.509 2.807-7.659 6.818-7.659 3.865 0 6.566 2.796 6.558 6.807-.001.348-.02.696-.057 1.043l-.013.12h-11.156c.05 3.209 1.978 5.278 4.936 5.278 1.696 0 3.164-.69 4.136-1.947l.088-.115 1.479 1.32-.082.1c-.983 1.2-2.774 2.631-5.734 2.631-4.168 0-6.973-3.045-6.973-7.578zm6.762-5.696c-2.493 0-4.26 1.644-4.537 4.204h8.994c-.177-2.059-1.432-4.204-4.457-4.204z" transform="translate(-1067 -939) translate(180 890) translate(887 49)"/>
                </g>
            </g>
        </g>
    </g>
</svg>
