<svg xmlns="http://www.w3.org/2000/svg" width="18" height="18" viewBox="0 0 18 18">
    <g fill="none" fill-rule="evenodd">
        <g fill-rule="nonzero">
            <g>
                <g>
                    <g>
                        <g>
                            <path fill="#D4D4D4" d="M9 0C4.028 0 0 4.028 0 9s4.028 9 9 9 9-4.028 9-9-4.028-9-9-9z" transform="translate(-851 -5184) translate(180 4777) translate(540) translate(4 373) translate(127 34)"/>
                            <path fill="#FFF" d="M13.413 11.363c.17.17.17.446 0 .616l-1.437 1.434c-.17.17-.447.17-.617 0L9 11.033l-2.362 2.38c-.171.17-.447.17-.617 0l-1.434-1.437c-.17-.17-.17-.447 0-.617L6.967 9l-2.38-2.362c-.17-.171-.17-.447 0-.617l1.437-1.438c.17-.17.447-.17.617 0L9 6.968l2.363-2.38c.17-.171.446-.171.616 0l1.438 1.436c.17.17.17.447 0 .617L11.032 9l2.38 2.363z" transform="translate(-851 -5184) translate(180 4777) translate(540) translate(4 373) translate(127 34)"/>
                        </g>
                    </g>
                </g>
            </g>
        </g>
    </g>
</svg>
