<svg xmlns="http://www.w3.org/2000/svg" width="83" height="24" viewBox="0 0 83 24">
    <g fill="none" fill-rule="evenodd">
        <g fill="#1AB4D7" fill-rule="nonzero">
            <g>
                <g>
                    <g>
                        <g>
                            <g>
                                <g>
                                    <path d="M14.184 12.012l9.074 9.145c.3.309.468.717.468 1.15 0 .902-.729 1.634-1.626 1.634-.437 0-.847-.172-1.156-.486 0-.002-9.065-9.11-9.065-9.11l-9.106 9.123c-.307.305-.715.473-1.147.473C.729 23.941 0 23.21 0 22.308c0-.44.175-.852.488-1.163l9.072-9.12L.493 2.89C.173 2.575 0 2.161 0 1.72 0 .818.73.086 1.626.086c.433 0 .84.169 1.147.477l9.092 9.13L20.922.597c.321-.334.736-.512 1.178-.512.896 0 1.625.733 1.625 1.635 0 .435-.167.844-.472 1.152l-9.069 9.14zM68.124 12.014c0-1.637 1.325-2.97 2.956-2.97 1.627 0 2.952 1.333 2.952 2.97 0 1.639-1.325 2.971-2.952 2.971-1.631 0-2.956-1.332-2.956-2.97" transform="translate(-269 -1087) translate(180 890) translate(89 197) matrix(1 0 0 -1 0 24)"/>
                                    <path d="M62.521 12.013c0 4.743 3.838 8.603 8.555 8.603 4.716 0 8.555-3.86 8.555-8.603 0-4.742-3.839-8.6-8.555-8.6-4.717 0-8.555 3.858-8.555 8.6m-3.365 0c0-6.608 5.347-11.985 11.92-11.985C77.65.028 83 5.405 83 12.013 83 18.623 77.65 24 71.076 24c-6.573 0-11.92-5.378-11.92-11.987M58.31 23.795l-.5.001c-1.502 0-2.95-.476-4.16-1.413-.16.733-.811 1.285-1.588 1.285-.893 0-1.61-.72-1.612-1.62l.006-20.188c.002-.9.731-1.63 1.625-1.63.895 0 1.623.73 1.626 1.632v12.413c0 4.137.377 5.808 3.901 6.25.326.042.68.035.682.035.964.033 1.65.7 1.65 1.6 0 .902-.732 1.635-1.63 1.635M27.094 13.986c0 .045.003.092.006.138.943 3.751 4.322 6.527 8.347 6.527 4.073 0 7.483-2.844 8.378-6.665H27.094zm20.06.309c-.7 3.335-2.516 6.074-5.281 7.834-4.042 2.58-9.38 2.437-13.284-.354-3.184-2.278-5.023-6.005-5.023-9.843 0-.963.116-1.935.356-2.89C25.124 4.284 29.19.683 34.039.087c1.439-.176 2.84-.092 4.29.286 1.246.305 2.451.813 3.562 1.529 1.153.745 2.117 1.728 3.05 2.904.019.022.038.041.056.064.648.807.528 1.956-.184 2.504-.6.462-1.607.65-2.4-.371-.17-.244-.36-.495-.57-.746-.63-.7-1.412-1.38-2.35-1.906-1.192-.64-2.551-1.006-3.996-1.015-4.728.053-7.259 3.372-8.159 5.741-.157.442-.278.901-.363 1.374-.01.088-.019.174-.022.252l16.969.003c2.326.049 3.578 1.7 3.232 3.588" transform="translate(-269 -1087) translate(180 890) translate(89 197) matrix(1 0 0 -1 0 24)"/>
                                </g>
                            </g>
                        </g>
                    </g>
                </g>
            </g>
        </g>
    </g>
</svg>
